<?xml version="1.0" encoding="UTF-8" standalone="no"?>
<!-- Created with Inkscape (http://www.inkscape.org/) -->

<svg
   xmlns:osb="http://www.openswatchbook.org/uri/2009/osb"
   xmlns:dc="http://purl.org/dc/elements/1.1/"
   xmlns:cc="http://creativecommons.org/ns#"
   xmlns:rdf="http://www.w3.org/1999/02/22-rdf-syntax-ns#"
   xmlns:svg="http://www.w3.org/2000/svg"
   xmlns="http://www.w3.org/2000/svg"
   xmlns:sodipodi="http://sodipodi.sourceforge.net/DTD/sodipodi-0.dtd"
   xmlns:inkscape="http://www.inkscape.org/namespaces/inkscape"
   width="147.5956mm"
   height="116.18887mm"
   viewBox="0 0 522.97653 411.69283"
   id="svg2"
   version="1.1"
   inkscape:version="0.91 r13725"
   sodipodi:docname="person_3_contour_handdrawn.svg">
  <sodipodi:namedview
     id="base"
     pagecolor="#ffffff"
     bordercolor="#666666"
     borderopacity="1.0"
     inkscape:pageopacity="0.0"
     inkscape:pageshadow="2"
     inkscape:zoom="1"
     inkscape:cx="362.74651"
     inkscape:cy="183.84267"
     inkscape:document-units="px"
     inkscape:current-layer="person_center"
     showgrid="false"
     inkscape:window-width="1366"
     inkscape:window-height="705"
     inkscape:window-x="-8"
     inkscape:window-y="-8"
     inkscape:window-maximized="1"
     showguides="false"
     fit-margin-top="0"
     fit-margin-left="0"
     fit-margin-right="0"
     fit-margin-bottom="0" />
  <defs
     id="defs4">
    <linearGradient
       id="linearGradient5919"
       osb:paint="solid">
      <stop
         style="stop-color:#af597e;stop-opacity:1;"
         offset="0"
         id="stop5921" />
    </linearGradient>
  </defs>
  <metadata
     id="metadata7">
    <rdf:RDF>
      <cc:Work
         rdf:about="">
        <dc:format>image/svg+xml</dc:format>
        <dc:type
           rdf:resource="http://purl.org/dc/dcmitype/StillImage" />
        <dc:title />
        <cc:license
           rdf:resource="http://creativecommons.org/licenses/by-sa/3.0/" />
        <dc:creator>
          <cc:Agent>
            <dc:title>handitover.se</dc:title>
          </cc:Agent>
        </dc:creator>
        <dc:publisher>
          <cc:Agent>
            <dc:title>handitover.se</dc:title>
          </cc:Agent>
        </dc:publisher>
      </cc:Work>
      <cc:License
         rdf:about="http://creativecommons.org/licenses/by-sa/3.0/">
        <cc:permits
           rdf:resource="http://creativecommons.org/ns#Reproduction" />
        <cc:permits
           rdf:resource="http://creativecommons.org/ns#Distribution" />
        <cc:requires
           rdf:resource="http://creativecommons.org/ns#Notice" />
        <cc:requires
           rdf:resource="http://creativecommons.org/ns#Attribution" />
        <cc:permits
           rdf:resource="http://creativecommons.org/ns#DerivativeWorks" />
        <cc:requires
           rdf:resource="http://creativecommons.org/ns#ShareAlike" />
      </cc:License>
    </rdf:RDF>
  </metadata>
  <g
     inkscape:label="Layer 1"
     inkscape:groupmode="layer"
     id="layer1"
     transform="translate(-141.69132,-230.06475)">
    <g
       id="person_center">
      <path
         transform="matrix(-0.64989264,-0.76002602,0.92972255,-0.36826075,0,0)"
         style="fill:#e3d097;fill-opacity:1;fill-rule:evenodd;stroke:#222222;stroke-width:4.1127038;stroke-linecap:butt;stroke-linejoin:miter;stroke-miterlimit:4;stroke-dasharray:none;stroke-opacity:1"
         d="M-740.260412842 119.947493525C-740.260413156 127.135838761 -740.016107407 134.509067449 -743.042300728 140.372364988C-746.261638662 146.609883275 -752.192413437 150.802480452 -757.850759268 154.476224453C-763.526399389 158.161196964 -770.831531097 162.129443865 -777.937038887 162.129443865C-785.042537086 162.129443865 -791.785978823 159.893554987 -797.461613904 156.208591686C-803.119738738 152.53499709 -807.864221368 146.102020128 -811.083552531 139.864830741C-814.109990671 134.00135572 -815.034672309 126.719318289 -815.034672623 119.530660563C-815.034672483 112.342315195 -814.207851529 107.027806176 -811.181658254 101.164508486C-807.962320368 94.9269900374 -803.19048488 88.8189670226 -797.53213899 85.1452229068C-791.85649881 81.4602502804 -784.029883575 80.9489563735 -776.924375654 80.9489563735C-769.818877325 80.9489563735 -764.437321782 81.6619157621 -758.76168664 85.3468791871C-753.103561747 89.0204739067 -746.364450658 94.1113698165 -743.145119544 100.3485594C-740.118681449 106.212034604 -740.054987132 112.555544111 -740.054986992 119.744202039C-740.054986992 119.744202039 -740.067645567 119.753939081 -740.067645567 119.753939081"
         id="ellipse5853" />
      <path
         transform="matrix(-0.82642793,-0.56304252,0.83639903,-0.54812104,0,0)"
         style="fill:#e3d097;fill-opacity:1;fill-rule:evenodd;stroke:#222222;stroke-width:4.16145277;stroke-linecap:butt;stroke-linejoin:miter;stroke-miterlimit:4;stroke-dasharray:none;stroke-opacity:1"
         d="M-538.725389873 -340.434049812C-538.725389727 -332.910918164 -539.911875553 -327.395840821 -543.059332418 -321.255909309C-546.413603365 -314.712533256 -551.303676144 -308.197069155 -557.20498539 -304.339089614C-563.136628132 -300.461279558 -571.966774645 -298.116997618 -579.397701101 -298.116997413C-586.828885914 -298.116997618 -591.876333399 -300.509155729 -597.808111522 -304.387215143C-603.70883889 -308.24497429 -608.851548531 -313.388814911 -612.205687914 -319.931514825C-615.353467562 -326.071682326 -618.140839346 -332.876258206 -618.1408392 -340.399804522C-618.140839346 -347.92293617 -617.088680509 -355.57947886 -613.941223644 -361.719410372C-610.586952697 -368.262786425 -604.992489006 -375.29751252 -599.09117976 -379.155492061C-593.159537018 -383.033302117 -585.778899169 -383.111456737 -578.347972713 -383.111456942C-570.9167879 -383.111456737 -564.566308668 -382.971982005 -558.634530545 -379.093922599C-552.733803177 -375.23616346 -547.869991659 -369.734987012 -544.515852276 -363.19228713C-541.368072628 -357.052119659 -538.09195671 -348.533703035 -538.091956856 -341.010156784C-538.091956856 -341.010156784 -540.188401744 -341.404776735 -540.188401744 -341.404776735"
         id="ellipse5855" />
      <path
         style="opacity:1;fill:#af597e;fill-opacity:1;fill-rule:evenodd;stroke:#222222;stroke-width:4;stroke-linecap:butt;stroke-linejoin:miter;stroke-miterlimit:4;stroke-dasharray:none;stroke-opacity:1"
         d="M209.675931381 477.203639803C209.675931381 477.203639803 220.583905927 477.842158558 233.740525927 477.543718558C240.740345927 477.384928558 246.533230948 477.317568611 254.493080948 477.137008611C262.453680948 476.956428611 271.1670169 477.946513479 278.1675669 477.787703479C291.3246769 477.489253479 300.429255148 475.766468504 300.429255148 475.766468504C300.429255148 475.766468504 312.285623792 475.449731563 330.026723792 475.447731563C338.602443792 475.446981563 348.341129446 475.880399548 359.142679446 475.879399548C368.472929446 475.878579548 379.070694801 477.247104927 389.191834801 477.246104927C398.926104801 477.245244927 409.26477987 477.309612188 418.99906987 477.308612188C429.12104987 477.307732188 439.72768599 477.033388625 449.05865599 477.032388625C459.86020599 477.031448625 468.266441369 475.52945255 476.842151369 475.52845255C494.583051369 475.52645255 507.238174585 477.290765089 507.238174585 477.290765089C507.238174585 477.290765089 517.153523685 480.83263768 530.908513685 485.60447768C538.227553685 488.14357768 547.783367378 489.766872103 556.106227378 492.654202103C564.428537378 495.541352103 570.697539942 498.078226518 578.016029942 500.617136518C591.770669942 505.388856518 602.281316382 510.330558093 602.281316382 510.330558093C602.281316382 510.330558093 598.91516862 520.853163725 594.98573862 533.938883725C592.69008862 541.583853725 592.01897134 548.983623965 589.72330134 556.628603965C585.79385134 569.714413965 580.911417617 579.83047965 580.911417617 579.83047965C580.911417617 579.83047965 571.062350322 575.290977647 557.087930322 569.437027647C549.652140322 566.322147647 540.980419824 564.925392719 532.524789824 561.383302719C524.069729824 557.841442719 516.070092792 554.341070146 508.634862792 551.226420146C494.660802792 545.372640146 484.410068518 541.006454488 484.410068518 541.006454488C484.410068518 541.006454488 487.037100007 551.57456648 491.446100007 565.87213648C493.792120007 573.47987648 495.885105465 581.624718442 498.552895465 590.275878442C501.220505465 598.926468442 504.63818911 608.134431159 506.98402911 615.741601159C511.39290911 630.038801159 513.816513482 639.837090149 513.816513482 639.837090149C513.816513482 639.837090149 503.560090684 639.811307931 486.804770684 638.716517931C478.825210684 638.195127931 471.142990481 636.796075729 460.955420481 636.130415729C452.293040481 635.564415729 442.449688049 635.774488148 432.878048049 635.149068148C423.883638049 634.561378148 415.174665994 632.725713572 405.918205994 632.120893572C396.661625994 631.516063572 387.113104569 630.394012106 378.118504569 629.806312106C368.546004569 629.180842106 357.421686334 629.599953764 348.758526334 629.033893764C338.569856334 628.368163764 330.343079737 626.412638205 322.362869737 625.891208205C305.608359737 624.796468205 295.642353625 624.472374432 295.642353625 624.472374432C295.642353625 624.472374432 296.728108135 616.177913466 300.345048135 602.970683466C302.269398135 595.943943466 304.402968601 586.435222381 306.591248601 578.444752381C308.779738601 570.453532381 312.658365705 563.868826324 314.582915705 556.841346324C318.199995705 543.633626324 320.533142518 534.125684501 320.533142518 534.125684501C320.533142518 534.125684501 310.569153972 534.28245843 297.620593972 537.26808843C290.731473972 538.85654843 283.676056167 542.319641538 275.842086167 544.125961538C268.007376167 545.932461538 260.092723498 547.853939492 253.202873498 549.442579492C240.253843498 552.428319492 228.681759625 553.919428346 228.681759625 553.919428346C228.681759625 553.919428346 225.696025175 542.813649711 222.017505175 528.922639711C219.868435175 520.807209711 219.534750699 512.167893904 217.385680699 504.052443904C213.707130699 490.161353904 210.712398089 478.821464567 210.712398089 478.821464567"
         id="path5857"
         inkscape:connector-curvature="0"
         sodipodi:nodetypes="ccccccccccc" />
      <ellipse
         style="fill:#e3d097;fill-opacity:1;fill-rule:evenodd;stroke:#222222;stroke-width:4.04042625;stroke-linecap:butt;stroke-linejoin:miter;stroke-miterlimit:4;stroke-dasharray:none;stroke-opacity:1"
         id="ellipse5859"
         cx="-165.29361"
         cy="-505.73465"
         rx="135.98628"
         ry="118.41515"
         transform="matrix(-0.95821758,0.28604034,-0.47060654,-0.88234318,0,0)" />
      <ellipse
         style="fill:#3f9c5a;fill-opacity:1;stroke:#222222;stroke-width:4.00268793;stroke-miterlimit:4;stroke-dasharray:none;stroke-opacity:1"
         id="ellipse5861"
         cx="343.8942"
         cy="418.37732"
         rx="21.141937"
         ry="18.738491"
         transform="matrix(0.9945793,-0.10398083,0.05232168,0.99863028,0,0)" />
      <ellipse
         style="fill:#000000;fill-opacity:1;stroke:none"
         id="ellipse5863"
         cx="354.89969"
         cy="427.69012"
         rx="14.073571"
         ry="13.345084"
         transform="matrix(0.99161982,-0.12919028,0.03200743,0.99948763,0,0)" />
      <ellipse
         style="fill:#ffffff;fill-opacity:0.82474228;stroke:none"
         id="ellipse5865"
         cx="324.26425"
         cy="395.4776"
         rx="7.4628692"
         ry="5.8835626"
         transform="matrix(0.99794494,-0.06407723,0.09080533,0.99586866,0,0)" />
      <ellipse
         style="fill:#3f9c5a;fill-opacity:1;stroke:#222222;stroke-width:4.00268793;stroke-miterlimit:4;stroke-dasharray:none;stroke-opacity:1"
         id="ellipse5867"
         cx="416.88467"
         cy="425.34656"
         rx="21.141937"
         ry="18.738491"
         transform="matrix(0.9945793,-0.10398083,0.05232168,0.99863028,0,0)" />
      <ellipse
         style="fill:#000000;fill-opacity:1;stroke:none"
         id="ellipse5869"
         cx="428.19034"
         cy="436.53314"
         rx="14.073571"
         ry="13.345084"
         transform="matrix(0.99161982,-0.12919028,0.03200743,0.99948763,0,0)" />
      <ellipse
         style="fill:#ffffff;fill-opacity:0.82474228;stroke:none"
         id="ellipse5871"
         cx="397.00568"
         cy="399.52533"
         rx="7.4628692"
         ry="5.8835626"
         transform="matrix(0.99794494,-0.06407723,0.09080533,0.99586866,0,0)" />
      <path
         style="fill:#c54c4c;fill-opacity:0.82474228;fill-rule:evenodd;stroke:#222222;stroke-width:4;stroke-linecap:butt;stroke-linejoin:miter;stroke-miterlimit:4;stroke-dasharray:none;stroke-opacity:1"
         d="m 306.50892,438.16694 c 0,0 10.71498,-0.42031 28.02037,-0.43791 8.36596,-0.008 18.34709,0.0572 28.88458,0.0465 9.10108,-0.009 19.4144,1.11642 29.28684,1.10642 9.49506,-0.01 17.15076,0.44218 26.64578,0.43258 9.87318,-0.01 21.56476,-0.80121 30.66633,-0.81041 10.53599,-0.0107 18.10684,0.17759 26.47168,0.16909 17.30467,-0.0176 29.5542,1.03634 29.5542,1.03634 0,0 -6.51035,6.63698 -20.62178,14.68426 -6.57265,3.74817 -14.42253,6.54916 -23.73308,10.13738 -7.57345,2.91876 -16.22252,6.8223 -25.48422,8.90862 -8.09631,1.8238 -18.44399,3.15195 -27.75119,3.87284 -9.95135,0.77078 -17.78542,-1.1922 -26.64658,-2.53708 -9.91474,-1.50478 -18.8446,-2.9199 -27.12151,-6.04708 -9.7982,-3.70195 -19.15073,-9.64069 -26.21257,-13.95778 -14.40006,-8.80315 -21.81181,-15.53425 -21.81181,-15.53425 l -2.20688,-1.72951"
         id="path5873"
         inkscape:connector-curvature="0"
         sodipodi:nodetypes="cczcssscssssssscc" />
      <path
         style="fill:#f5f5f5;fill-opacity:1;fill-rule:evenodd;stroke:#222222;stroke-width:4;stroke-linecap:butt;stroke-linejoin:miter;stroke-miterlimit:4;stroke-dasharray:none;stroke-opacity:1"
         d="m 378.6741,437.79179 -0.009,15.30628 22.83017,1.06918 1.45053,-15.08916 -24.22831,-0.82685"
         id="path5877"
         inkscape:connector-curvature="0"
         sodipodi:nodetypes="ccccc" />
      <path
         sodipodi:nodetypes="ccccc"
         inkscape:connector-curvature="0"
         id="path5879"
         d="m 404.80061,438.42042 -0.49835,15.12626 23.66613,0.11309 -0.64153,-14.25398 -22.48564,0.16095"
         style="fill:#f5f5f5;fill-opacity:1;fill-rule:evenodd;stroke:#222222;stroke-width:4;stroke-linecap:butt;stroke-linejoin:miter;stroke-miterlimit:4;stroke-dasharray:none;stroke-opacity:1" />
      <path
         style="fill:#f5f5f5;fill-opacity:1;fill-rule:evenodd;stroke:#222222;stroke-width:4;stroke-linecap:butt;stroke-linejoin:miter;stroke-miterlimit:4;stroke-dasharray:none;stroke-opacity:1"
         d="m 429.44941,439.30437 1.46677,13.59477 16.77037,-1.27862 0.17879,-12.82196 -16.7774,0.43607"
         id="path5881"
         inkscape:connector-curvature="0"
         sodipodi:nodetypes="ccccc" />
      <path
         sodipodi:nodetypes="ccccc"
         inkscape:connector-curvature="0"
         id="path5883"
         d="m 354.10128,437.02485 4.08365,13.88088 18.21071,0.70692 -0.51619,-12.85443 -22.02238,-1.04874"
         style="fill:#f5f5f5;fill-opacity:1;fill-rule:evenodd;stroke:#222222;stroke-width:4;stroke-linecap:butt;stroke-linejoin:miter;stroke-miterlimit:4;stroke-dasharray:none;stroke-opacity:1" />
      <ellipse
         transform="matrix(0.99337986,-0.11487579,0.11487579,0.99337986,0,0)"
         ry="35.784943"
         rx="45.176208"
         cy="423.03244"
         cx="306.94843"
         id="path5887"
         style="fill:none;fill-opacity:0.82474228;stroke:#098753;stroke-width:4.90678978;stroke-miterlimit:4;stroke-dasharray:none;stroke-opacity:1" />
      <ellipse
         style="fill:none;fill-opacity:0.82474228;stroke:#098753;stroke-width:4.90678978;stroke-miterlimit:4;stroke-dasharray:none;stroke-opacity:1"
         id="ellipse5889"
         cx="480.17984"
         cy="337.86142"
         rx="45.176208"
         ry="35.784943"
         transform="matrix(0.99530274,0.09681145,-0.09681145,0.99530274,0,0)" />
      <path
         sodipodi:nodetypes="cc"
         inkscape:connector-curvature="0"
         id="path5891"
         d="M487.215366696 366.673694419C487.215366696 366.673694419 514.319720785 368.604555535 514.319720785 368.604555535"
         style="fill:none;fill-rule:evenodd;stroke:#098753;stroke-width:4;stroke-linecap:butt;stroke-linejoin:miter;stroke-miterlimit:4;stroke-dasharray:none;stroke-opacity:1" />
      <path
         style="fill:none;fill-rule:evenodd;stroke:#098753;stroke-width:4;stroke-linecap:butt;stroke-linejoin:miter;stroke-miterlimit:4;stroke-dasharray:none;stroke-opacity:1"
         d="M281.981646477 374.837915549C281.981646477 374.837915549 312.569607935 371.974455257 312.569607935 371.974455257"
         id="path5893"
         inkscape:connector-curvature="0"
         sodipodi:nodetypes="cc" />
      <path
         sodipodi:nodetypes="ccccccccccccccccczzzzzcsscssscsscssscsscscscscsssssssssssssssssscc"
         inkscape:connector-curvature="0"
         id="path5885"
         d="m 318.537,489.3151 c 0,0 -9.10848,10.55565 -15.7376,17.18478 -6.62913,6.62912 -13.7359,13.13798 -13.7359,13.13798 0,0 -13.61161,-7.00921 -27.42229,-11.98105 -13.81068,-4.97185 -27.33124,-9.98576 -27.33124,-9.98576 0,0 5.95703,-5.23109 11.20509,-12.41264 5.24806,-7.18156 9.99394,-16.29615 9.99394,-16.29615 0,0 -10.49315,-5.98867 -22.66375,-15.92798 -7.11033,-5.80678 -15.05105,-12.2645 -22.1614,-18.07128 -12.17067,-9.93938 -21.45905,-17.97488 -21.45905,-17.97488 0,0 11.69758,-9.77608 22.74612,-19.16734 11.04854,-9.39127 20.15489,-19.33622 20.15489,-19.33622 0,0 0.34383,-10.9533 0.81946,-25.53924 0.25308,-7.76119 1.07321,-17.54469 1.361,-26.37034 0.28777,-8.82506 1.6859,-17.66455 1.93897,-25.42515 0.47561,-14.58557 0.63792,-23.41245 0.63792,-23.41245 0,0 13.60936,-0.076 29.43113,0.73541 9.24343,0.47402 19.10345,1.56101 28.3469,2.03503 15.82187,0.81138 27.74471,1.66406 27.74471,1.66406 0,0 7.93775,-7.2458 17.47139,-16.1709 5.56976,-5.21424 12.11289,-13.15634 17.68266,-18.3706 9.5337,-8.92515 17.26088,-16.21397 17.26088,-16.21397 0,0 8.25136,6.0689 21.09333,12.88624 6.83321,3.62751 14.99722,8.67375 22.76762,12.79878 7.76989,4.12475 15.81628,6.39051 22.64898,10.01775 12.84164,6.81716 23.03367,13.96561 23.03367,13.96561 0,0 10.0778,-2.83679 23.55394,-3.78805 7.16981,-0.50611 14.52316,0.9585 22.67632,0.38298 8.15393,-0.57557 17.88837,-1.98359 25.05894,-2.48975 13.47663,-0.95129 21.68801,-0.96245 21.68801,-0.96245 0,0 -1.5082,7.82827 -4.95654,19.59318 -2.01459,6.87332 -5.89744,15.07646 -7.91204,21.9498 -3.44836,11.76498 -4.43011,20.91792 -4.43011,20.91792 0,0 5.9596,10.11589 16.42343,22.16514 5.5678,6.41141 13.95515,12.91916 20.28659,20.20991 6.33102,7.29027 12.71281,14.76381 18.28019,21.17474 10.46356,12.04894 16.4562,20.33805 16.4562,20.33805 0,0 -7.47372,6.58567 -17.41304,12.26528 -5.80677,3.31816 -11.91517,6.96306 -17.72195,10.28122 -9.93938,5.67965 -19.29934,8.76212 -19.29934,8.76212 0,0 7.06781,12.8711 12.8683,24.19586 5.80048,11.32475 12.32331,22.04144 12.32331,22.04144 0,0 -12.24664,6.01799 -22.46654,12.09469 -10.2199,6.0767 -18.49067,11.15829 -18.49067,11.15829 0,0 -11.56814,-9.8167 -22.61668,-19.20796 -11.04855,-9.39127 -22.73806,-19.85847 -22.73806,-19.85847 0,0 10.08584,-5.93732 17.80911,-19.01339 4.16526,-7.05209 8.03953,-15.67471 10.06594,-25.05421 1.79855,-8.32484 1.76624,-16.52979 -0.40465,-25.91921 -2.49553,-10.79354 -5.94937,-21.73869 -8.56504,-29.57162 -3.46123,-10.36506 -7.93658,-18.07632 -13.14326,-25.19669 -5.28868,-7.2325 -10.96253,-13.90415 -19.87046,-20.08636 -6.33738,-4.39822 -14.55442,-7.23792 -22.47771,-9.58392 -7.43412,-2.20117 -14.71346,-1.83234 -22.79369,-2.67582 -7.93483,-0.82831 -15.89268,-1.09289 -23.75664,-1.02731 -8.32644,0.0695 -15.30063,-0.92143 -22.75405,-0.32488 -9.32659,0.74647 -18.69489,2.70928 -27.71074,4.46749 -9.37417,1.82808 -20.51373,3.81111 -28.89075,7.19519 -8.87833,3.5866 -15.27651,9.11872 -22.25492,14.99831 -7.24467,6.10391 -14.82044,9.78287 -19.85017,15.92026 -5.05519,6.16846 -8.55388,12.86661 -11.28993,22.19779 -2.01766,6.88113 -4.08041,15.77778 -4.7982,25.8607 -0.69332,9.73906 1.89375,20.67303 5.77861,30.01351 3.92592,9.4392 9.17799,17.28609 14.5957,24.76876 9.78677,13.51701 14.46813,14.77194 14.46813,14.77194 l 8.3746,5.31627"
         style="fill:#e65944;fill-opacity:1;fill-rule:evenodd;stroke:#222222;stroke-width:4;stroke-linecap:butt;stroke-linejoin:miter;stroke-miterlimit:4;stroke-dasharray:none;stroke-opacity:1" />
    </g>
  </g>
  <g
     inkscape:groupmode="layer"
     id="layer2"
     inkscape:label="head"
     transform="translate(-141.69132,-230.06475)" />
</svg>
