<?xml version="1.0" encoding="UTF-8" standalone="no"?>
<!-- Created with Inkscape (http://www.inkscape.org/) -->

<svg
   xmlns:osb="http://www.openswatchbook.org/uri/2009/osb"
   xmlns:dc="http://purl.org/dc/elements/1.1/"
   xmlns:cc="http://creativecommons.org/ns#"
   xmlns:rdf="http://www.w3.org/1999/02/22-rdf-syntax-ns#"
   xmlns:svg="http://www.w3.org/2000/svg"
   xmlns="http://www.w3.org/2000/svg"
   xmlns:sodipodi="http://sodipodi.sourceforge.net/DTD/sodipodi-0.dtd"
   xmlns:inkscape="http://www.inkscape.org/namespaces/inkscape"
   width="148.94696mm"
   height="124.81928mm"
   viewBox="0 0 527.76481 442.27305"
   id="svg2"
   version="1.1"
   inkscape:version="0.91 r13725"
   sodipodi:docname="person_1_contour_handdrawn.svg">
  <sodipodi:namedview
     id="base"
     pagecolor="#ffffff"
     bordercolor="#666666"
     borderopacity="1.0"
     inkscape:pageopacity="0.0"
     inkscape:pageshadow="2"
     inkscape:zoom="2.72"
     inkscape:cx="248.26468"
     inkscape:cy="310.71377"
     inkscape:document-units="px"
     inkscape:current-layer="g10"
     showgrid="false"
     inkscape:window-width="1366"
     inkscape:window-height="705"
     inkscape:window-x="-8"
     inkscape:window-y="-8"
     inkscape:window-maximized="1"
     showguides="false"
     fit-margin-top="0"
     fit-margin-left="0"
     fit-margin-right="0"
     fit-margin-bottom="0" />
  <defs
     id="defs4">
    <linearGradient
       osb:paint="solid"
       id="linearGradient5919">
      <stop
         id="stop5921"
         offset="0"
         style="stop-color:#af597e;stop-opacity:1;" />
    </linearGradient>
  </defs>
  <metadata
     id="metadata7">
    <rdf:RDF>
      <cc:Work
         rdf:about="">
        <dc:format>image/svg+xml</dc:format>
        <dc:type
           rdf:resource="http://purl.org/dc/dcmitype/StillImage" />
        <dc:title></dc:title>
        <cc:license
           rdf:resource="http://creativecommons.org/licenses/by-sa/3.0/" />
        <dc:creator>
          <cc:Agent>
            <dc:title>handitover.se</dc:title>
          </cc:Agent>
        </dc:creator>
        <dc:publisher>
          <cc:Agent>
            <dc:title>handitover.se</dc:title>
          </cc:Agent>
        </dc:publisher>
      </cc:Work>
      <cc:License
         rdf:about="http://creativecommons.org/licenses/by-sa/3.0/">
        <cc:permits
           rdf:resource="http://creativecommons.org/ns#Reproduction" />
        <cc:permits
           rdf:resource="http://creativecommons.org/ns#Distribution" />
        <cc:requires
           rdf:resource="http://creativecommons.org/ns#Notice" />
        <cc:requires
           rdf:resource="http://creativecommons.org/ns#Attribution" />
        <cc:permits
           rdf:resource="http://creativecommons.org/ns#DerivativeWorks" />
        <cc:requires
           rdf:resource="http://creativecommons.org/ns#ShareAlike" />
      </cc:License>
    </rdf:RDF>
  </metadata>
  <g
     transform="translate(32.860989,0.75592437)"
     id="layer1"
     inkscape:groupmode="layer"
     inkscape:label="Layer 1">
    <g
       style="stroke:none;stroke-opacity:1"
       inkscape:label="#person_1"
       id="person_1">
      <g
         style="stroke:none;stroke-opacity:1"
         transform="matrix(0.98701282,0.16064151,-0.16064151,0.98701282,38.89364,-34.847691)"
         id="g10">
        <path
           id="path3336-5-1"
           d="M432.593810113 281.580617742C438.545600113 277.549677742 445.435855694 274.989949364 452.708425694 273.521839364C460.445635694 271.959929364 469.107495132 271.179246908 476.670615132 272.522056908C484.255935132 273.868796908 491.745215007 278.771308714 497.422085007 283.043918714C501.464645007 286.086508714 505.368274973 289.32901069 507.310794973 293.24311069C509.212034973 297.07401069 508.144078416 300.453676972 507.812028416 304.679086972C507.473088416 308.992096972 505.993178495 313.603220942 503.394258495 317.511320942C500.845608495 321.343830942 497.221125062 324.575200909 492.790525062 327.575890909C488.359925062 330.576570909 485.124035026 333.619617194 479.629175026 335.234687194C474.025925026 336.881627194 468.29344923 336.656251394 462.24298923 336.670551394C456.31540923 336.684551394 450.506761717 335.706315475 445.248701717 334.148865475C439.876461717 332.557595475 433.822959458 329.609565631 429.780399458 326.566975631C424.103199458 322.294105631 420.12808151 317.283668141 418.64439151 311.804258141C417.16510151 306.341098141 418.461914789 300.395143373 421.054744789 294.961073373C423.491634789 289.853843373 426.833430306 286.901242916 432.784730306 282.870642916C432.784730306 282.870642916 434.397076751 281.375712685 434.397076751 281.375712685"
           style="fill:#f2efb2;fill-opacity:1;fill-rule:evenodd;stroke:#222222;stroke-width:4;stroke-linecap:butt;stroke-linejoin:miter;stroke-miterlimit:4;stroke-dasharray:none;stroke-opacity:1"
           inkscape:connector-curvature="0" />
        <path
           id="path3336-5"
           d="m 6.2868944,349.16767 c 3.9142326,-4.01641 6.5674936,-7.11833 11.9063306,-10.05147 5.449458,-2.99391 11.555025,-5.00196 17.846549,-6.51674 6.157726,-1.48256 13.914161,-1.57253 19.7381,-1.36162 5.956235,0.21571 10.616538,1.40706 15.523497,3.36638 6.901361,2.75566 11.336936,6.61126 14.13915,11.58821 2.787545,4.9509 5.405532,9.7187 3.954132,15.6481 -1.362103,5.56461 -5.22831,12.54768 -10.479277,17.93573 -5.250678,5.38775 -13.366893,9.13084 -20.575235,12.36084 -7.68105,3.44183 -15.504964,6.19975 -23.677206,6.77464 -8.216254,0.57797 -16.010805,-2.44719 -22.91277,-5.20309 -4.9069601,-1.95932 -7.7997455,-4.35908 -10.7216396,-7.68835 -2.8569944,-3.25531 -4.4125336,-6.38294 -5.0401602,-10.57485 -0.6412639,-4.28299 -0.00872,-8.82136 1.7957082,-13.27071 1.76779937,-4.35902 2.58506845,-8.09067 6.499302,-12.10709 l 3.709432,-2.3088"
           style="fill:#f2efb2;fill-opacity:1;fill-rule:evenodd;stroke:#222222;stroke-width:3.99999976;stroke-linecap:butt;stroke-linejoin:miter;stroke-miterlimit:4;stroke-dasharray:none;stroke-opacity:1"
           inkscape:connector-curvature="0"
           sodipodi:nodetypes="cssssssssssssscc" />
        <path
           sodipodi:nodetypes="ccccccccccc"
           inkscape:connector-curvature="0"
           id="path4203"
           d="M50.147156303 326.882649007C50.147156303 326.882649007 60.0523261653 325.221230635 72.8324921653 322.082250635C79.6320151653 320.412190635 87.2166204012 316.886328888 94.9487154012 314.987218888C102.681530401 313.087928888 112.1406323 312.540553803 118.9408723 310.870323803C131.7215023 307.731223803 139.881221187 305.817788546 139.881221187 305.817788546C139.881221187 305.817788546 151.194755602 303.276090106 168.514965602 299.434640106C176.887245602 297.577750106 187.440060972 293.36291539 197.985350972 291.02407539C207.094250972 289.00381539 216.963105612 288.879066037 226.844145612 286.687556037C236.347475612 284.579806037 246.306774105 282.22420371 255.810134105 280.11645371C265.691974105 277.92475371 274.775591811 276.093559049 283.885201811 274.073139049C294.430501811 271.734299049 303.432133605 267.550495411 311.804393605 265.693605411C329.124413605 261.852205411 341.68985884 259.355979241 341.68985884 259.355979241C341.68985884 259.355979241 352.356680775 260.561811509 366.818440775 262.243411509C374.513550775 263.138191509 381.934631566 265.885465944 390.685141566 266.902965944C399.435071566 267.920395944 408.488197295 267.166658642 416.182727295 268.061368642C430.644117295 269.742918642 442.236020084 270.953051356 442.236020084 270.953051356C442.236020084 270.953051356 439.962783315 282.841859398 438.958763315 296.467889398C438.372193315 304.428509398 439.72757765 312.922918041 439.14100765 320.883558041C438.13697765 334.509668041 436.992786633 347.11789102 436.992786633 347.11789102C436.992786633 347.11789102 426.283581533 344.728833576 411.373391533 342.038273576C403.439671533 340.606623576 393.999187607 337.50196217 384.977337607 335.87396217C375.956097607 334.24606217 366.052805213 332.523113739 358.119685213 331.091573739C343.209885213 328.401073739 333.106040253 326.550320668 333.106040253 326.550320668C333.106040253 326.550320668 338.237672333 338.171243015 345.636712333 351.175623015C349.573742333 358.095263015 353.031897618 365.70244705 357.508897618 373.57111705C361.985607618 381.43927705 367.196977038 387.402481613 371.133717038 394.321591613C378.532557038 407.325641613 384.882983052 418.783076895 384.882983052 418.783076895C384.882983052 418.783076895 374.473125378 419.547403315 357.878025378 422.105073315C349.974765378 423.323133315 338.895936141 424.108041298 328.805786141 425.663151298C320.226236141 426.985451298 312.189265636 430.235515854 302.709145636 431.696615854C293.800745636 433.069595854 283.149862121 433.694362619 273.981912121 435.107342619C264.813842121 436.520342619 257.709447161 438.182108179 248.800857161 439.555118179C239.319887161 441.016348179 230.18746965 442.298566075 221.60714965 443.620986075C211.51589965 445.176266075 202.320498977 446.248880266 194.416598977 447.467050266C177.822288977 450.024590266 166.634292743 450.726749234 166.634292743 450.726749234C166.634292743 450.726749234 165.663532251 440.896065425 166.336172251 427.219045425C166.694042251 419.942365425 167.022286937 412.781404067 167.429246937 404.506714067C167.836236937 396.231244067 168.751142982 386.474438481 169.109052982 379.196978481C169.781712982 365.519468481 169.678717472 356.571710899 169.678717472 356.571710899C169.678717472 356.571710899 160.776959738 360.823334367 148.781539738 366.540774367C142.399529738 369.582664367 137.318613376 372.768424766 130.061293376 376.227524766C122.803303376 379.686944766 113.488666839 382.65783812 107.105986839 385.70005812C95.1101328386 391.41770812 86.1725645287 396.67864647 86.1725645287 396.67864647C86.1725645287 396.67864647 82.8792021849 385.701122584 76.2813361849 372.935692584C72.4267151849 365.477832584 66.6473133087 356.286870054 62.7926853087 348.829000054C56.1947763087 336.063490054 52.1949279998 327.193140873 52.1949279998 327.193140873"
           style="fill:#e7cd54;fill-opacity:1;fill-rule:evenodd;stroke:#222222;stroke-width:4;stroke-linecap:butt;stroke-linejoin:miter;stroke-miterlimit:4;stroke-dasharray:none;stroke-opacity:1" />
        <path
           style="fill:#f2efb2;fill-opacity:1;fill-rule:evenodd;stroke:#222222;stroke-width:4;stroke-linecap:butt;stroke-linejoin:miter;stroke-miterlimit:4;stroke-dasharray:none;stroke-opacity:1"
           d="m 192.67805,100.37699 c -9.22717,1.71603 -19.75219,2.9345 -28.43465,6.01502 -8.8667,3.14589 -18.03709,8.2207 -26.06672,12.69364 -7.84092,4.3697 -14.6076,9.94647 -21.1632,15.26679 -6.96783,5.65487 -13.33654,11.66346 -18.720627,18.17587 -5.702132,6.89709 -8.637365,13.7077 -12.406435,21.30914 -3.941429,7.94904 -6.746992,15.95147 -8.394218,24.37446 -1.671942,8.54936 9.694659,13.39428 10.577612,22.1175 -1.21385,0.48737 -13.494134,1.73843 -14.644446,2.31087 -9.358787,4.67515 -17.363209,16.0081 -19.89198,24.17054 -2.528771,8.16243 -0.770839,16.63814 5.011779,23.50624 5.021876,5.96394 13.073183,9.66995 21.610811,11.73828 7.686043,1.86203 16.253085,1.03661 24.583014,-0.85531 6.8371,6.73902 12.60398,13.63812 20.98706,18.65106 8.18232,4.89288 18.70689,9.16728 27.97416,12.38074 9.00945,3.12408 17.4332,3.58446 27.11095,5.08902 9.45217,1.46949 19.49593,2.13834 29.25367,2.03298 9.60113,-0.10367 19.81846,-0.76034 29.40041,-2.41715 9.48702,-1.6404 19.32442,-3.15242 28.48783,-6.34285 9.09653,-3.16715 16.20753,-6.23767 24.68736,-10.95919 8.87143,-4.94727 16.53809,-11.27994 23.77487,-17.45182 7.7258,-6.58893 14.55746,-14.44831 20.20235,-22.11928 5.98836,-8.13771 11.42627,-17.37944 14.81188,-26.35923 3.50848,-9.30568 6.95847,-17.92593 7.37814,-27.71308 6.34236,-3.34906 12.63535,-7.27177 16.94075,-12.55357 6.60135,-8.11637 8.50157,-17.09965 7.44211,-25.57921 -1.05945,-8.47955 -7.27604,-15.3672 -15.37562,-19.24217 -4.43192,-2.10915 -8.5604,-5.17511 -13.97338,-5.24758 -4.90418,-0.0657 -8.91565,0.31307 -14.04069,1.93751 -0.99263,-1.37252 -3.05379,-0.42794 -4.12401,-1.76143 -5.5883,-6.526 -12.21618,-14.36182 -19.31821,-19.57562 -6.88082,-5.05141 -15.78013,-7.94223 -23.79828,-11.67803 -7.7323,-3.60262 -13.8807,-6.80667 -22.41575,-9.11042 -8.25165,-2.22725 -17.59346,-3.03634 -26.36538,-3.981508 -8.51606,-0.917596 -18.51789,-2.733399 -27.31425,-2.380478 -8.57162,0.343905 -15.54404,2.625876 -24.18782,4.233596 l 0.23676,-0.25899"
           id="path3336"
           inkscape:connector-curvature="0"
           sodipodi:nodetypes="cscssssccscscsssssscsssccscsccssssscc" />
        <ellipse
           transform="matrix(0.94849823,-0.31678243,0.2672246,0.96363427,0,0)"
           ry="18.738491"
           rx="21.141937"
           cy="246.70345"
           cx="121.2326"
           id="path4138"
           style="fill:#3f479c;fill-opacity:1;stroke:#222222;stroke-width:4.00268793;stroke-miterlimit:4;stroke-dasharray:none;stroke-opacity:1" />
        <ellipse
           transform="matrix(0.94015258,-0.34075377,0.24757745,0.96886811,0,0)"
           ry="13.345084"
           rx="14.073571"
           cy="250.03183"
           cx="128.24983"
           id="path4138-7"
           style="fill:#000000;fill-opacity:1;stroke:none;stroke-width:4.00954056;stroke-miterlimit:4;stroke-dasharray:none;stroke-opacity:1" />
        <ellipse
           transform="matrix(0.96042081,-0.27855316,0.3041983,0.95260873,0,0)"
           ry="5.8835626"
           rx="7.4628692"
           cy="232.67184"
           cx="108.16689"
           id="path4138-7-2"
           style="fill:#ffffff;fill-opacity:0.82474228;stroke:none;stroke-width:4.00071907;stroke-miterlimit:4;stroke-dasharray:none;stroke-opacity:1" />
        <ellipse
           transform="matrix(0.94849823,-0.31678243,0.2672246,0.96363427,0,0)"
           ry="18.738491"
           rx="21.141937"
           cy="253.67268"
           cx="194.22316"
           id="path4138-2"
           style="fill:#3f479c;fill-opacity:1;stroke:#222222;stroke-width:4.00268793;stroke-miterlimit:4;stroke-dasharray:none;stroke-opacity:1" />
        <ellipse
           transform="matrix(0.94015258,-0.34075377,0.24757745,0.96886811,0,0)"
           ry="13.345084"
           rx="14.073571"
           cy="258.87491"
           cx="201.54051"
           id="path4138-7-7"
           style="fill:#000000;fill-opacity:1;stroke:none;stroke-width:4.00954056;stroke-miterlimit:4;stroke-dasharray:none;stroke-opacity:1" />
        <ellipse
           transform="matrix(0.96042081,-0.27855316,0.3041983,0.95260873,0,0)"
           ry="5.8835626"
           rx="7.4628692"
           cy="236.71967"
           cx="180.90836"
           id="path4138-7-2-8"
           style="fill:#ffffff;fill-opacity:0.82474228;stroke:none;stroke-width:4.00071907;stroke-miterlimit:4;stroke-dasharray:none;stroke-opacity:1" />
        <path
           sodipodi:nodetypes="cczcssscssssssscc"
           inkscape:connector-curvature="0"
           id="path4199"
           d="m 133.17048,268.21178 c 0,0 13.55023,-4.17643 30.44161,-7.93915 8.1654,-1.81893 19.3294,-2.56196 29.61419,-4.853 8.8838,-1.97896 16.34863,-4.14068 25.98544,-6.28738 9.2671,-2.06434 20.74228,-4.07705 30.00936,-6.14139 9.63652,-2.14663 18.01029,-4.81569 26.89383,-6.79459 10.28449,-2.29097 20.7842,-3.79237 28.94944,-5.61126 16.89176,-3.76281 26.27109,-6.03834 26.27109,-6.03834 0,0 -5.24597,8.79835 -17.28115,19.70915 -5.60517,5.08151 -13.49425,9.58791 -21.80662,15.10583 -6.76235,4.489 -14.05314,9.75989 -22.64409,13.80159 -7.50995,3.53314 -16.09431,6.07407 -25.02531,8.79245 -9.54819,2.90624 -17.74439,3.25081 -26.68621,3.85578 -10.00625,0.67698 -18.61692,0.67955 -27.37513,-0.58221 -10.36701,-1.49354 -21.64162,-3.87025 -29.47031,-6.55653 -15.96378,-5.47769 -25.33847,-10.36155 -25.33847,-10.36155 l 1.42784,-0.21362"
           style="fill:#e75454;fill-opacity:0.82474228;fill-rule:evenodd;stroke:#222222;stroke-width:4;stroke-linecap:butt;stroke-linejoin:miter;stroke-miterlimit:4;stroke-dasharray:none;stroke-opacity:1" />
        <path
           style="fill:#bfe754;fill-opacity:1;fill-rule:evenodd;stroke:#222222;stroke-width:4;stroke-linecap:butt;stroke-linejoin:miter;stroke-miterlimit:4;stroke-dasharray:none;stroke-opacity:1"
           d="M236.512865557 -0.420563159744C236.512865557 -0.420563159744 235.777803733 11.1824339103 235.726303733 25.0666209103C235.696203733 33.1780739103 236.379059813 41.8630099345 236.348959813 49.9744779345C236.297359813 63.8587539345 234.424627932 74.6187788485 234.424627932 74.6187788485C234.424627932 74.6187788485 227.336978582 69.734479578 216.252958582 61.990772578C210.355848582 57.870831578 204.655871672 52.3409299204 197.949961672 47.6559299204C191.243421672 42.9704929204 184.117109669 37.1449999353 178.219379669 33.0246239353C167.134959669 25.2806339353 158.069783252 19.335627654 158.069783252 19.335627654C158.069783252 19.335627654 158.156846545 30.0775661575 157.440176545 43.1297881575C157.021486545 50.7551881575 157.159066164 60.0137045334 156.740366164 67.6391175334C156.023696164 80.6914235334 154.241607781 90.4186432327 154.241607781 90.4186432327C154.241607781 90.4186432327 145.222771856 83.9909693801 136.908021856 75.7311093801C128.593281856 67.4712493801 120.968774951 59.5663258969 120.968774951 59.5663258969C120.968774951 59.5663258969 120.690271845 70.1088869817 120.385711845 82.8397469817C120.081161845 95.5706069817 120.911091471 109.76956449 120.911091471 109.76956449C120.911091471 109.76956449 110.112100175 108.509616557 96.8866841748 106.925246557C89.1601021748 105.999626557 80.4849397059 103.9463284 72.7583437059 103.0206984C59.5328467059 101.4363184 46.7905027277 101.098453164 46.7905027277 101.098453164C46.7905027277 101.098453164 55.4140717843 109.031884816 63.8836507843 118.092414816C68.8317687843 123.385774816 74.1633924384 127.403674983 79.1115194384 132.697044983C87.5811524384 141.757634983 94.9911325609 150.53200734 94.9911325609 150.53200734C94.9911325609 150.53200734 85.4078880058 147.628473153 72.4354980058 143.900553153C65.5337040058 141.917163153 55.5812757466 139.02510983 47.7328847466 136.76968983C39.8837597466 134.51406983 33.7983863918 131.790071399 26.8958613918 129.806471399C13.9229983918 126.078411399 3.80888923584 125.212938091 3.80888923584 125.212938091C3.80888923584 125.212938091 11.4172731981 134.834010063 20.6812871981 146.646200063C26.0935321981 153.547140063 32.8127868929 159.708383798 38.2250408929 166.609333798C47.4891148929 178.421593798 54.7267210183 189.329016372 54.7267210183 189.329016372C54.7267210183 189.329016372 40.2380189514 192.006185251 24.6774659514 196.333435251C15.5866419514 198.861515251 7.6972422135 201.458370329 -1.3935976865 203.986450329C-16.9542507865 208.313730329 -30.1975901045 213.012659985 -30.1975901045 213.012659985C-30.1975901045 213.012659985 -20.3288962487 215.213082718 -7.61363154875 218.753402718C-0.848637748748 220.636992718 5.07099446861 221.500985627 12.7638234686 223.642905627C20.4573704686 225.785025627 28.9879896452 229.767632983 35.7536986452 231.651412983C48.4694266452 235.191872983 56.8698740114 237.146651144 56.8698740114 237.146651144C60.2741810114 232.762511144 65.0413846959 228.034797669 70.6589626959 225.226227669C76.0220966959 222.562297669 82.0492684801 220.856248296 88.3130524801 220.185088296C92.3923404801 214.481398296 99.4309659719 208.517490597 105.239442972 201.907900597C110.226432972 196.233080597 113.740177062 190.955658378 119.927137062 185.381058378C125.705927062 180.174238378 132.649085993 175.737213906 139.416505993 171.216433906C145.962895993 166.843303906 154.313842972 161.465983347 161.733582972 158.267023347C170.642182972 154.426143347 176.849633012 150.560829067 183.787343012 147.675779067C193.060673012 143.819459067 200.278313652 141.760638656 207.171563652 139.345638656C216.467333652 136.088938656 226.329102414 133.586167024 234.084672414 132.299687024C242.012552414 130.984637024 247.886414005 131.202766875 257.587734005 131.156746875C264.585254005 131.123546875 274.451342824 133.122180396 282.889612824 135.421110396C290.412342824 137.470610396 298.347905135 140.008851761 305.735285135 142.915701761C313.742825135 146.066591761 320.431126007 149.850574646 326.801986007 152.859234646C332.113646007 149.717204646 336.855264171 145.994474176 342.562384171 144.852614176C348.709414171 143.622744176 355.549968637 142.982890276 361.157158637 144.259210276C361.157158637 144.259210276 370.052275253 136.458915886 380.108885253 126.859395886C385.984185253 121.251135886 391.041910817 115.773631276 396.917220817 110.165361276C406.973900817 100.565771276 416.168733164 91.9318079894 416.168733164 91.9318079894C416.168733164 91.9318079894 406.194146133 95.9537643775 393.247276133 98.3486683775C385.683416133 99.7478253775 377.772378464 100.816631283 370.208508464 102.215791283C357.261548464 104.610711283 346.417266369 105.226230265 346.417266369 105.226230265C346.417266369 105.226230265 344.919474898 94.937236666 345.157384898 80.697934666C345.296384898 72.379014666 347.525886801 62.501278999 347.664886801 54.182344999C347.902796801 39.942950999 345.932411242 28.3078788571 345.932411242 28.3078788571C345.932411242 28.3078788571 337.764438342 34.4403487143 326.301738342 43.0480407143C319.604978342 48.0768477143 312.809480473 53.9141646113 306.112700473 58.9429796113C294.649930473 67.5507276113 283.645433686 74.8153232041 283.645433686 74.8153232041C283.645433686 74.8153232041 278.821606145 66.2893328912 271.819396145 55.2916278912C268.093956145 49.4404398912 264.22481242 42.651281481 259.98842242 35.997588481C255.75164242 29.343275481 252.757774589 24.0942999259 249.031944589 18.2424929259C242.029484589 7.24438642592 236.301464262 -2.20962481243 236.301464262 -2.20962481243C236.301464262 -2.20962481243 235.383648537 -2.2670089948 235.383648537 -2.2670089948"
           id="path4201"
           inkscape:connector-curvature="0" />
        <path
           sodipodi:nodetypes="ccccc"
           inkscape:connector-curvature="0"
           id="path4240"
           d="m 206.85072,252.1088 3.31456,14.36312 23.75436,-4.97184 -2.76214,-14.91554 z"
           style="fill:#f5f5f5;fill-opacity:1;fill-rule:evenodd;stroke:#222222;stroke-width:4;stroke-linecap:butt;stroke-linejoin:miter;stroke-miterlimit:4;stroke-dasharray:none;stroke-opacity:1" />
        <path
           style="fill:#f5f5f5;fill-opacity:1;fill-rule:evenodd;stroke:#222222;stroke-width:4;stroke-linecap:butt;stroke-linejoin:miter;stroke-miterlimit:4;stroke-dasharray:none;stroke-opacity:1"
           d="m 232.26238,246.3083 3.31456,14.36312 23.47814,-5.52426 -2.48592,-14.36312 z"
           id="path4242"
           inkscape:connector-curvature="0"
           sodipodi:nodetypes="ccccc" />
        <path
           sodipodi:nodetypes="ccccc"
           inkscape:connector-curvature="0"
           id="path4244"
           d="m 257.95026,240.62154 2.63248,13.14454 18.08352,-4.02946 0.33822,-13.92442 z"
           style="fill:#f5f5f5;fill-opacity:1;fill-rule:evenodd;stroke:#222222;stroke-width:4;stroke-linecap:butt;stroke-linejoin:miter;stroke-miterlimit:4;stroke-dasharray:none;stroke-opacity:1" />
        <path
           style="fill:#f5f5f5;fill-opacity:1;fill-rule:evenodd;stroke:#222222;stroke-width:4;stroke-linecap:butt;stroke-linejoin:miter;stroke-miterlimit:4;stroke-dasharray:none;stroke-opacity:1"
           d="m 184.30312,256.98208 4.90984,11.25978 19.39694,-2.69714 -2.48028,-13.59946 z"
           id="path4246"
           inkscape:connector-curvature="0"
           sodipodi:nodetypes="ccccc" />
      </g>
    </g>
  </g>
  <g
     transform="translate(32.860989,0.75592437)"
     inkscape:label="head"
     id="layer2"
     inkscape:groupmode="layer" />
</svg>
