<?xml version="1.0" encoding="UTF-8" standalone="no"?>
<!-- Created with Inkscape (http://www.inkscape.org/) -->

<svg
   xmlns:osb="http://www.openswatchbook.org/uri/2009/osb"
   xmlns:dc="http://purl.org/dc/elements/1.1/"
   xmlns:cc="http://creativecommons.org/ns#"
   xmlns:rdf="http://www.w3.org/1999/02/22-rdf-syntax-ns#"
   xmlns:svg="http://www.w3.org/2000/svg"
   xmlns="http://www.w3.org/2000/svg"
   xmlns:sodipodi="http://sodipodi.sourceforge.net/DTD/sodipodi-0.dtd"
   xmlns:inkscape="http://www.inkscape.org/namespaces/inkscape"
   width="147.69081mm"
   height="115.42165mm"
   viewBox="0 0 523.3139 408.97435"
   id="svg2"
   version="1.1"
   inkscape:version="0.91 r13725"
   sodipodi:docname="person_2_contour_handdrawn.svg">
  <sodipodi:namedview
     id="base"
     pagecolor="#ffffff"
     bordercolor="#666666"
     borderopacity="1.0"
     inkscape:pageopacity="0.0"
     inkscape:pageshadow="2"
     inkscape:zoom="1.08"
     inkscape:cx="313.13653"
     inkscape:cy="185.80402"
     inkscape:document-units="px"
     inkscape:current-layer="person_2"
     showgrid="false"
     inkscape:window-width="1366"
     inkscape:window-height="705"
     inkscape:window-x="-8"
     inkscape:window-y="-8"
     inkscape:window-maximized="1"
     showguides="false"
     fit-margin-top="0"
     fit-margin-left="0"
     fit-margin-right="0"
     fit-margin-bottom="0" />
  <defs
     id="defs4">
    <linearGradient
       osb:paint="solid"
       id="linearGradient5919">
      <stop
         id="stop5921"
         offset="0"
         style="stop-color:#af597e;stop-opacity:1;" />
    </linearGradient>
  </defs>
  <metadata
     id="metadata7">
    <rdf:RDF>
      <cc:Work
         rdf:about="">
        <dc:format>image/svg+xml</dc:format>
        <dc:type
           rdf:resource="http://purl.org/dc/dcmitype/StillImage" />
        <dc:title></dc:title>
        <cc:license
           rdf:resource="http://creativecommons.org/licenses/by-sa/3.0/" />
        <dc:creator>
          <cc:Agent>
            <dc:title>handitover.se</dc:title>
          </cc:Agent>
        </dc:creator>
        <dc:publisher>
          <cc:Agent>
            <dc:title>handitover.se</dc:title>
          </cc:Agent>
        </dc:publisher>
      </cc:Work>
      <cc:License
         rdf:about="http://creativecommons.org/licenses/by-sa/3.0/">
        <cc:permits
           rdf:resource="http://creativecommons.org/ns#Reproduction" />
        <cc:permits
           rdf:resource="http://creativecommons.org/ns#Distribution" />
        <cc:requires
           rdf:resource="http://creativecommons.org/ns#Notice" />
        <cc:requires
           rdf:resource="http://creativecommons.org/ns#Attribution" />
        <cc:permits
           rdf:resource="http://creativecommons.org/ns#DerivativeWorks" />
        <cc:requires
           rdf:resource="http://creativecommons.org/ns#ShareAlike" />
      </cc:License>
    </rdf:RDF>
  </metadata>
  <g
     transform="translate(-289.8316,-23.016817)"
     id="layer1"
     inkscape:groupmode="layer"
     inkscape:label="Layer 1">
    <g
       style="stroke:#222222;stroke-width:2;stroke-miterlimit:4;stroke-dasharray:none;stroke-opacity:1"
       transform="matrix(0.98598121,-0.16685635,0.16685635,0.98598121,-30.761432,94.069761)"
       id="person_2">
      <path
         id="ellipse4248"
         d="M353.110553195 271.737263426C348.679953195 268.736573426 343.848442192 268.563458523 338.353572192 266.948378523C332.750322192 265.301448523 327.678655446 263.476057569 321.628185446 263.461747569C315.700605446 263.447747569 308.015561513 264.819724565 302.757501513 266.377174565C297.385261513 267.968444565 292.348577075 270.044742121 288.306017075 273.087322121C284.263447075 276.129912121 282.229985307 278.216827898 280.287465307 282.130927898C278.386235307 285.961837898 278.643904383 291.073974913 278.975964383 295.299394913C279.314904383 299.612404913 279.390385308 304.997361213 281.989305308 308.905461213C284.537955308 312.737971213 287.830214746 314.340854147 292.260814746 317.341544147C298.212604746 321.372484147 306.62433857 325.772234575 313.89690857 327.240344575C321.63412857 328.802254575 329.325787259 329.175250116 336.888907259 327.832440116C344.474227259 326.485700116 352.13821884 322.210118038 357.81507884 317.937498038C363.49228884 313.664628038 365.337399245 308.079733879 366.821089245 302.600323879C368.300379245 297.137173879 369.483390099 291.9281044 366.890550099 286.4940344C364.453670099 281.3868044 359.998694795 276.125926965 354.047394795 272.095326965C354.047394795 272.095326965 354.147245417 272.224492309 354.147245417 272.224492309"
         style="fill:#d9aa71;fill-opacity:1;fill-rule:evenodd;stroke:#222222;stroke-width:4;stroke-linecap:butt;stroke-linejoin:miter;stroke-miterlimit:4;stroke-dasharray:none;stroke-opacity:1"
         inkscape:connector-curvature="0" />
      <path
         id="ellipse4250"
         d="M781.546285525 341.394810238C776.295605525 336.007060238 768.851913393 329.792740166 761.643563393 326.562740166C753.962513393 323.120910166 746.195732025 320.645516504 738.023492025 320.070626504C729.807242025 319.492656504 722.041023395 320.448590188 715.139063395 323.204490188C710.232103395 325.163810188 705.808409348 327.983024381 702.886519348 331.312294381C700.029529348 334.567604381 697.694991017 340.020427566 697.067361017 344.212337566C696.426101017 348.495327566 697.557849441 351.361820573 699.362479441 355.811170573C701.130279441 360.170190573 704.485940264 366.599555137 708.400170264 370.615975137C713.650850264 376.003725137 720.088140727 378.208316814 727.296480727 381.438316814C734.977530727 384.880146814 744.245966293 387.317736459 752.418206293 387.892616459C760.634456293 388.470586459 767.297776478 387.320675051 774.199736478 384.564775051C781.101096478 381.809105051 785.474736778 378.716534483 788.276946778 373.739584483C791.064496778 368.788684483 791.779948175 363.058128538 790.328548175 357.128728538C788.966448175 351.564118538 785.874881016 346.298085012 780.623921016 340.910035012C780.623921016 340.910035012 780.757646156 339.517399055 780.757646156 339.517399055"
         style="fill:#d9aa71;fill-opacity:1;fill-rule:evenodd;stroke:#222222;stroke-width:3.99999976;stroke-linecap:butt;stroke-linejoin:miter;stroke-miterlimit:4;stroke-dasharray:none;stroke-opacity:1"
         inkscape:connector-curvature="0" />
      <path
         sodipodi:nodetypes="ccccccccccc"
         inkscape:connector-curvature="0"
         id="path4252"
         d="M736.277781924 318.246805817C736.277781924 318.246805817 726.922465241 315.786600629 714.142305241 312.647610629C707.342785241 310.977560629 698.876418905 307.273163654 691.144318905 305.374063654C683.411508905 303.474773654 675.406981352 303.757784314 668.606731352 302.087544314C655.826101352 298.948444314 645.624252719 296.188857725 645.624252719 296.188857725C645.624252719 296.188857725 636.235234614 292.884928262 618.915014614 289.043478262C610.542734614 287.186588262 598.593496677 285.01730875 588.048206677 282.67846875C578.939306677 280.65820875 571.042505251 279.484603906 561.161465251 277.293083906C551.658135251 275.185343906 540.177169724 272.20478712 530.673809724 270.09703712C520.791959724 267.90534712 511.260233197 265.170452263 502.150613197 263.150032263C491.605323197 260.811182263 483.651361343 258.546633962 475.279101343 256.689753962C457.959071343 252.848343962 446.224888408 250.020145351 446.224888408 250.020145351C446.224888408 250.020145351 435.983540659 252.721611763 421.521770659 254.403201763C413.826670659 255.297981763 404.284059797 256.923384644 395.533549797 257.940884644C386.783609797 258.958314644 377.451226659 259.92585193 369.756686659 260.82056193C355.295296659 262.50212193 345.242225381 263.777226931 345.242225381 263.777226931C345.242225381 263.777226931 344.793600074 273.311040704 345.797620074 286.937060704C346.384190074 294.897690704 347.246868931 305.036149254 347.833438931 312.996789254C348.837468931 326.622899254 350.912737405 337.916856385 350.912737405 337.916856385C350.912737405 337.916856385 362.234938415 334.14122228 377.145128415 331.45066228C385.078838415 330.01901228 392.330588247 329.615980938 401.352428247 327.987980938C410.373678247 326.360090938 419.438196673 324.823413432 427.371316673 323.391873432C442.281126673 320.701383432 455.206631358 317.538419049 455.206631358 317.538419049C455.206631358 317.538419049 447.938093066 327.191142316 440.539053066 340.195522316C436.602023066 347.115152316 433.510867367 356.613475208 429.033857367 364.482155208C424.557157367 372.350315208 418.490777025 379.366571007 414.554037025 386.285691007C407.155187025 399.289731007 402.998354567 407.739381437 402.998354567 407.739381437C402.998354567 407.739381437 414.300164366 411.098205042 430.895264366 413.655875042C438.798524366 414.873945042 446.089597007 415.917933939 456.179747007 417.473043939C464.759307007 418.795343939 474.763266501 418.87776802 484.243376501 420.33885802C493.151786501 421.71183802 502.468626965 425.291206692 511.636586965 426.704186692C520.804646965 428.117186692 529.123096193 428.987273285 538.031696193 430.360283285C547.512666193 431.821503285 556.662465289 433.16761413 565.242795289 434.49003413C575.334045289 436.04531413 585.498263155 435.891349865 593.402163155 437.109509865C609.996473155 439.667059865 620.495430129 443.4819481 620.495430129 443.4819481C620.495430129 443.4819481 619.158646088 432.522915995 618.486006088 418.845895995C618.128136088 411.569215995 619.404263703 402.115133458 618.997313703 393.840433458C618.590323703 385.564963458 618.17726177 379.115774313 617.81935177 371.838324313C617.14668177 358.160804313 615.096745816 347.664215813 615.096745816 347.664215813C615.096745816 347.664215813 625.370101909 352.349918195 637.365521909 358.067368195C643.747531909 361.109258195 649.666953718 362.935144082 656.924273718 366.394234082C664.182263718 369.853654082 671.305477501 373.584434883 677.688167501 376.626644883C689.684017501 382.344294883 700.676945679 387.277667817 700.676945679 387.277667817C700.676945679 387.277667817 704.108018666 375.899281212 710.705878666 363.133841212C714.560508666 355.675991212 720.450746728 348.876102569 724.305376728 341.418232569C730.903286728 328.652712569 736.513018049 317.969776257 736.513018049 317.969776257"
         style="fill:#7684b8;fill-opacity:1;fill-rule:evenodd;stroke:#222222;stroke-width:4;stroke-linecap:butt;stroke-linejoin:miter;stroke-miterlimit:4;stroke-dasharray:none;stroke-opacity:1" />
      <path
         transform="matrix(0.87359353,0.48665628,0.6504253,-0.75957022,0,0)"
         style="fill:#d9aa71;fill-opacity:1;fill-rule:evenodd;stroke:#222222;stroke-width:4.04042625;stroke-linecap:butt;stroke-linejoin:miter;stroke-miterlimit:4;stroke-dasharray:none;stroke-opacity:1"
         d="M711.430757555 104.754198491C711.430758331 112.773335808 709.344686716 120.323491502 707.528940292 128.064591697C705.717881745 135.785705997 704.250622639 143.797716207 700.737446151 151.023033021C697.298770514 158.095128883 691.601358787 166.418069187 686.630693878 172.807671414C681.83117417 178.97727294 675.894952215 183.314788806 669.756593167 188.65999546C663.228069272 194.344952807 658.117622131 200.266645391 650.525828117 204.630090184C643.041644505 208.93168503 633.21695592 211.50001757 624.945795751 214.428436417C616.815561888 217.306960057 610.040034203 219.471729829 601.38374091 220.938951646C592.884511122 222.37955156 583.268874817 224.94266879 574.484431449 224.94266879C565.699664931 224.94266879 557.592993321 222.125220663 549.093465412 220.684516216C540.437362846 219.21727173 531.147661717 219.050378423 523.017603229 216.171891653C514.746544135 213.243482932 508.211652887 208.275901753 500.727555536 203.974348052C493.135799811 199.61091671 483.850792074 194.904483856 477.322297492 189.219552035C471.18407636 183.874465477 466.949849117 179.103676677 462.150406177 172.934230201C457.179581701 166.544481237 451.78314743 159.111108991 448.344389884 152.03882954C444.831403129 144.813887478 442.997026674 135.759847128 441.185977854 128.039154386C439.370058839 120.297699483 439.45354576 114.134175454 439.453546536 106.114651178C439.453546536 98.0955143026 440.600897814 89.2455828514 442.416644793 81.5044831864C444.227703894 73.7833694152 444.820153518 66.0759021718 448.333330341 58.8505859331C451.772006306 51.7784906344 456.357457997 46.2843388687 461.328123025 39.894737211C466.127642848 33.7251362342 473.236179587 27.5927293949 479.374538556 22.2475232607C485.903062367 16.5625664668 492.110087974 12.0665217319 499.701881739 7.70307737833C507.186065104 3.40148296481 516.175000851 -1.16514197536 524.446160651 -4.09356051765C532.576394152 -6.97208385805 538.859813517 -9.13275547424 547.516106364 -10.5999771343C556.015335715 -12.0405768942 566.065472266 -14.0494666091 574.84991515 -14.0494666091C583.634681184 -14.0494666091 592.705020554 -13.1342411085 601.204548025 -11.6935368158C609.860650146 -10.2262924868 617.390387599 -6.07692239 625.520445725 -3.19843591883C633.79150445 -0.270027502228 643.094028795 2.13886477394 650.578125899 6.44041804199C658.169881375 10.8038489436 663.766114182 17.0225872278 670.294608679 22.7075184956C676.432829732 28.052604534 683.45342428 32.9967567826 688.252867335 39.166202695C693.22369193 45.5559510746 697.257487219 51.5491354134 700.696245093 58.6214142398C704.209232183 65.846355665 706.961879469 74.552841142 708.772928842 82.273533212C710.588848413 90.0149874414 711.547043233 97.9054904912 711.547043233 105.925014066C711.547043233 105.925014066 710.527924596 106.53087896 710.527924596 106.53087896"
         id="ellipse4254" />
      <ellipse
         transform="matrix(-0.94849823,-0.31678243,-0.2672246,0.96363427,0,0)"
         ry="18.738491"
         rx="21.141937"
         cy="-11.674223"
         cx="-635.49011"
         id="ellipse4256"
         style="fill:#5c4531;fill-opacity:1;stroke:#222222;stroke-width:4.00268793;stroke-miterlimit:4;stroke-dasharray:none;stroke-opacity:1" />
      <ellipse
         transform="matrix(-0.94015258,-0.34075377,-0.24757745,0.96886811,0,0)"
         ry="13.345084"
         rx="14.073571"
         cy="-28.104248"
         cx="-635.38672"
         id="ellipse4258"
         style="fill:#000000;fill-opacity:1;stroke:none;stroke-width:2.00477028;stroke-miterlimit:4;stroke-dasharray:none;stroke-opacity:1" />
      <ellipse
         transform="matrix(-0.96042081,-0.27855316,-0.3041983,0.95260873,0,0)"
         ry="5.8835626"
         rx="7.4628692"
         cy="4.4637294"
         cx="-627.78931"
         id="ellipse4260"
         style="fill:#ffffff;fill-opacity:0.71134021;stroke:none;stroke-width:2.00035954;stroke-miterlimit:4;stroke-dasharray:none;stroke-opacity:1" />
      <ellipse
         transform="matrix(-0.94849823,-0.31678243,-0.2672246,0.96363427,0,0)"
         ry="18.738491"
         rx="21.141937"
         cy="-4.7049851"
         cx="-562.49951"
         id="ellipse4262"
         style="fill:#5c4531;fill-opacity:1;stroke:#222222;stroke-width:4.00268793;stroke-miterlimit:4;stroke-dasharray:none;stroke-opacity:1" />
      <ellipse
         transform="matrix(-0.94015258,-0.34075377,-0.24757745,0.96886811,0,0)"
         ry="13.345084"
         rx="14.073571"
         cy="-19.261169"
         cx="-562.09595"
         id="ellipse4264"
         style="fill:#000000;fill-opacity:1;stroke:none;stroke-width:2.00477028;stroke-miterlimit:4;stroke-dasharray:none;stroke-opacity:1" />
      <ellipse
         transform="matrix(-0.96042081,-0.27855316,-0.3041983,0.95260873,0,0)"
         ry="5.8835626"
         rx="7.4628692"
         cy="8.0875235"
         cx="-553.69336"
         id="ellipse4266"
         style="fill:#ffffff;fill-opacity:0.71134021;stroke:none;stroke-width:2.00035954;stroke-miterlimit:4;stroke-dasharray:none;stroke-opacity:1" />
      <path
         sodipodi:nodetypes="cczcssscssssssscc"
         inkscape:connector-curvature="0"
         id="path4268"
         d="m 651.17542,257.25343 c 0,0 -12.70518,-1.03811 -29.59655,-4.80083 -8.16582,-1.81902 -16.32722,-3.48882 -26.61261,-5.77999 -8.88335,-1.97885 -18.71644,-4.29287 -28.35269,-6.43944 -9.26791,-2.06452 -18.75349,-3.87579 -28.02135,-5.94029 -9.63698,-2.14674 -20.01096,-5.93756 -28.89479,-7.91652 -10.28393,-2.29085 -19.75469,-4.48666 -27.91941,-6.30543 -16.89068,-3.76257 -27.8287,-6.38823 -27.8287,-6.38823 0,0 5.98789,8.39546 18.02307,19.30627 5.6056,5.08189 12.09944,11.3235 20.41265,16.84184 6.76219,4.48876 16.45004,8.65161 25.04063,12.69308 7.50964,3.53292 13.94759,6.58215 22.87814,9.3004 9.54864,2.90638 18.61352,5.33187 27.55573,5.93677 10.00541,0.67683 21.03652,1.03364 29.79409,-0.22797 10.36719,-1.49348 18.28894,-4.47962 26.11777,-7.16592 15.96408,-5.47774 26.69738,-11.14912 26.69738,-11.14912 l -0.5636,-2.02765"
         style="fill:#c05a5a;fill-opacity:0.82474228;fill-rule:evenodd;stroke:#222222;stroke-width:4;stroke-linecap:butt;stroke-linejoin:miter;stroke-miterlimit:4;stroke-dasharray:none;stroke-opacity:1" />
      <path
         sodipodi:nodetypes="ccccc"
         inkscape:connector-curvature="0"
         id="path4272"
         d="m 579.94435,242.84368 -3.31456,14.36312 -23.75436,-4.97184 2.76214,-14.91554 z"
         style="fill:#f5f5f5;fill-opacity:1;fill-rule:evenodd;stroke:#222222;stroke-width:4;stroke-linecap:butt;stroke-linejoin:miter;stroke-miterlimit:4;stroke-dasharray:none;stroke-opacity:1" />
      <path
         style="fill:#f5f5f5;fill-opacity:1;fill-rule:evenodd;stroke:#222222;stroke-width:4;stroke-linecap:butt;stroke-linejoin:miter;stroke-miterlimit:4;stroke-dasharray:none;stroke-opacity:1"
         d="m 554.53269,237.04318 -3.31456,14.36312 -23.47814,-5.52426 2.48592,-14.36312 z"
         id="path4274"
         inkscape:connector-curvature="0"
         sodipodi:nodetypes="ccccc" />
      <path
         sodipodi:nodetypes="ccccc"
         inkscape:connector-curvature="0"
         id="path4276"
         d="m 528.84481,231.35642 -2.63248,13.14454 -18.08352,-4.02946 -0.33822,-13.92442 z"
         style="fill:#f5f5f5;fill-opacity:1;fill-rule:evenodd;stroke:#222222;stroke-width:4;stroke-linecap:butt;stroke-linejoin:miter;stroke-miterlimit:4;stroke-dasharray:none;stroke-opacity:1" />
      <path
         style="fill:#f5f5f5;fill-opacity:1;fill-rule:evenodd;stroke:#222222;stroke-width:4;stroke-linecap:butt;stroke-linejoin:miter;stroke-miterlimit:4;stroke-dasharray:none;stroke-opacity:1"
         d="m 602.31274,248.77598 -4.90984,11.25978 -19.39694,-2.69714 2.48028,-13.59946 z"
         id="path4278"
         inkscape:connector-curvature="0"
         sodipodi:nodetypes="ccccc" />
      <path
         style="fill:#f7e792;fill-opacity:1;fill-rule:evenodd;stroke:#222222;stroke-width:4;stroke-linecap:butt;stroke-linejoin:miter;stroke-miterlimit:4;stroke-dasharray:none;stroke-opacity:1"
         d="M436.80396387 229.194648083C436.80396387 229.194648083 425.169895574 231.706079824 413.404985574 234.140199824C406.531665574 235.562259824 399.245454375 237.967678518 392.372124375 239.389748518C380.607144375 241.823888518 372.858197469 243.25725346 372.858197469 243.25725346C372.858197469 243.25725346 380.726324154 233.88007114 388.736514154 225.31745114C396.746714154 216.75483114 404.422080361 209.697678911 404.422080361 209.697678911C404.422080361 209.697678911 393.300354873 200.953911275 382.018174873 192.352261275C371.485614873 184.322121275 360.791664858 176.455745882 360.258214858 174.321965882C359.834184858 172.625845882 369.427911903 167.698077636 381.701781903 164.647287636C388.984811903 162.837007636 396.057818598 161.168348596 403.431738598 159.581898596C416.010648598 156.875638596 427.867897338 156.449212292 427.867897338 156.449212292C427.867897338 156.449212292 417.501226154 146.703458819 406.953376154 136.358458819C400.791086154 130.314678819 395.328829903 123.213353382 389.166529903 117.169563382C378.618609903 106.824493382 369.290251315 100.457034093 369.290251315 100.457034093C369.290251315 100.457034093 380.902735085 100.613114773 394.696065085 103.452914773C402.754445085 105.111994773 411.044355897 107.098411436 419.102745897 108.757491436C432.896175897 111.597311436 443.611535055 114.99596095 443.611535055 114.99596095C443.611535055 114.99596095 440.161007736 103.31422123 435.698457736 89.9265682301C433.091327736 82.1052012301 431.82742459 74.9003534347 429.22030459 67.0789724347C424.75772459 53.6912334347 420.043908857 42.9835635495 420.043908857 42.9835635495C420.043908857 42.9835635495 429.94837101 44.6373068975 442.47325101 49.7106778975C449.13696101 52.4098998975 455.800413761 57.4302247734 463.378063761 60.4996517734C470.956413761 63.5693647734 479.672867975 66.7481587345 486.337277975 69.4476657345C498.862617975 74.5212217345 507.037140203 78.189523068 507.037140203 78.189523068C507.037140203 78.189523068 512.826320328 69.7294094616 518.100240328 59.5872534616C521.181390328 53.6619784616 523.507372719 45.3209146881 526.588522719 39.3956296881C531.862482719 29.2534086881 535.676628729 21.2310819987 535.676628729 21.2310819987C535.676628729 21.2310819987 545.122684227 31.2721521746 554.859154227 41.6171521746C560.547424227 47.6609341746 566.176481735 54.6705245439 571.864761735 60.7143165439C581.601291735 71.0593835439 589.536971689 77.3061684855 589.536971689 77.3061684855C589.536971689 77.3061684855 600.354390454 74.195790706 613.539200454 67.704808706C621.242060454 63.912631706 630.590515672 58.1188907155 638.293385672 54.3267067155C651.478275672 47.8356827155 661.681554763 42.0326324118 661.681554763 42.0326324118C661.681554763 42.0326324118 664.092299524 58.5070022846 666.854429524 72.8701072846C669.616569524 87.2332122846 671.52445204 101.275635489 671.52445204 101.275635489C671.52445204 101.275635489 684.139920274 100.305641864 697.324730274 100.305641864C705.027590274 100.305641864 713.525862076 100.831499577 721.228732076 100.831499577C734.413622076 100.831499577 744.983498262 101.178938679 744.983498262 101.178938679C744.983498262 101.178938679 732.583416588 110.406169784 721.811086588 119.521219784C711.038756588 128.636269784 701.913140289 136.303887366 701.913140289 136.303887366C701.913140289 136.303887366 709.860160709 143.175439023 722.030750709 150.680639023C729.141080709 155.065339023 737.372467558 159.014221584 744.482807558 163.398931584C756.653477558 170.904181584 767.969841934 176.950585122 767.969841934 176.950585122C767.969841934 176.950585122 754.896073534 184.741262365 743.571313534 191.646602365C732.246553534 198.551942365 721.291818282 206.282965984 721.291818282 206.282965984C721.291818282 206.282965984 728.038197905 215.148065166 736.760447905 227.115815166C741.856187905 234.107635166 749.541285282 242.492289772 754.637035282 249.484129772C763.359355282 261.451949772 770.462892337 270.062784425 770.462892337 270.062784425C770.462892337 270.062784425 755.452844179 269.167633283 742.470804179 267.786563283C729.488764179 266.405493283 716.747345693 265.814250206 716.747345693 265.814250206C716.747345693 265.814250206 721.127538287 274.429147289 723.613458287 284.096617289C726.099388287 293.764097289 727.365060382 304.877104871 727.365060382 304.877104871C727.365060382 304.877104871 718.655334777 294.63501493 708.711644777 285.79618493C698.767954777 276.95735493 687.918804936 269.526846648 687.918804936 269.526846648C687.918804936 269.526846648 690.388537918 256.162393633 690.386247918 240.131683633C690.385247918 231.258323633 689.206690136 222.155433243 687.748220136 212.576903243C686.220100136 202.541053243 684.2221372 191.44025354 679.9277472 183.99941354C675.7545972 176.76862354 669.270045013 171.201183623 662.584035013 164.478113623C656.456985013 158.317103623 650.384194357 151.555972957 642.949544357 146.279882957C635.607024357 141.069182957 627.803983092 136.035704868 619.930173092 132.113224868C611.542233092 127.934634868 602.625810519 125.710196368 594.501510519 123.488626368C586.892770519 121.408036368 579.323008165 120.010582198 571.437398165 119.670192198C563.524348165 119.328622198 553.588316561 119.435490178 545.830846561 120.382680178C537.804756561 121.362720178 530.003271402 122.99020946 522.617551402 124.84421946C514.431581402 126.89910946 507.667233797 127.883832681 500.891993797 130.346382681C493.087773797 133.182942681 484.424995007 138.429875578 476.917005007 142.555105578C469.285025007 146.748475578 462.61677274 151.965381819 456.25974274 157.094001819C449.09034274 162.878021819 442.886241985 169.061243542 438.660271985 175.494113542C433.984161985 182.612203542 432.122158676 192.535934375 432.052578676 202.313814375C431.948668676 216.915914375 436.869924587 229.320607201 436.869924587 229.320607201C436.869924587 229.320607201 435.415055909 228.762872414 435.415055909 228.762872414"
         id="path4280"
         inkscape:connector-curvature="0"
         sodipodi:nodetypes="cccsccccccccccccccccczzzzc" />
    </g>
  </g>
  <g
     transform="translate(-289.8316,-23.016817)"
     inkscape:label="head"
     id="layer2"
     inkscape:groupmode="layer" />
</svg>
